<svg width="29" height="49" viewBox="0 0 29 49" fill="none" xmlns="http://www.w3.org/2000/svg">
<path d="M12.1637 35.0444C11.7468 34.9316 11.5466 34.5471 11.6497 34.0428L12.8916 29.0817L12.8444 29.0605C12.7539 29.0167 12.66 28.98 12.5639 28.9508C12.3371 28.8894 12.102 28.8258 11.891 28.7688L11.6809 28.7119L11.6384 28.7004C11.4216 28.6418 11.0941 28.549 10.7889 28.4664C10.4454 28.3735 10.1511 28.2939 9.88773 28.2328C9.70661 28.1989 9.5219 28.2317 9.37072 28.3244C8.59594 28.93 7.81858 29.546 7.07277 30.1426L7.06166 30.1514L6.98349 30.2147L6.9823 30.2195L6.9058 30.2833C6.15317 30.8823 5.37502 31.5014 4.60417 32.1055C4.57472 32.1272 4.54758 32.1502 4.52433 32.1684L4.51754 32.1742C4.47627 32.2121 4.43087 32.2457 4.38207 32.2744C4.29613 32.3323 4.19718 32.3708 4.09217 32.3872C3.98716 32.4036 3.87866 32.3975 3.7743 32.3694C3.63076 32.3307 3.50136 32.2505 3.40409 32.14C3.30683 32.0295 3.24653 31.8942 3.23159 31.7528C3.2217 31.6073 3.2352 31.4622 3.27161 31.3227C3.46434 30.5528 3.67608 29.7069 3.82641 29.0886L3.91276 28.7437C4.32772 27.0683 4.75531 25.3388 5.19949 23.6249C5.39256 22.7077 5.84234 21.8686 6.50143 21.196C7.16052 20.5234 8.00451 20.0421 8.94444 19.8031C9.41944 19.6781 9.9118 19.6126 10.4096 19.6081C10.5279 19.6208 10.6445 19.5881 10.7338 19.5173C10.8231 19.4464 10.8779 19.3431 10.8862 19.2301C11.0396 18.578 11.2049 17.9283 11.3647 17.3007L11.3675 17.2896C11.5788 16.4454 11.8048 15.5747 11.9987 14.697C12.6759 11.7654 14.0909 9.06675 16.1228 6.83214C16.9891 5.86092 17.8999 4.97863 19.0023 3.95303C19.3024 3.66839 19.5987 3.55509 19.8597 3.62569C20.0175 3.69152 20.158 3.79251 20.2691 3.91999C20.3802 4.04746 20.4585 4.19759 20.4973 4.35745C21.7594 7.533 22.3125 10.9007 22.1196 14.2355C22.0491 15.0514 21.9147 15.8582 21.7174 16.6494C21.3068 18.3749 20.8673 20.1307 20.4115 21.866C20.3913 21.9107 20.3808 21.9591 20.3806 22.0086C20.3804 22.058 20.3905 22.1074 20.4103 22.1539C20.43 22.2004 20.4591 22.2431 20.4958 22.2794C20.5325 22.3157 20.576 22.3449 20.6239 22.3653C21.6973 22.9976 22.5515 23.929 23.066 25.0282C23.5387 26.1299 23.6302 27.3338 23.3267 28.4569C22.9043 30.2012 22.4604 31.9567 22.0294 33.6573L22.0258 33.6715C21.8164 34.5079 21.5884 35.4008 21.37 36.2736C21.3558 36.4452 21.2774 36.6034 21.1492 36.7192C21.021 36.835 20.8514 36.9007 20.6717 36.9042C20.589 36.9069 20.5058 36.8977 20.4248 36.8771C20.2932 36.8322 20.174 36.7568 20.0781 36.6578C19.9822 36.5588 19.9126 36.4393 19.8758 36.3104C19.0516 34.3006 18.26 32.4095 17.4564 30.5269C17.3953 30.402 17.2982 30.2953 17.1772 30.2199C16.9051 30.1404 16.6174 30.0592 16.2722 29.9658C16.0021 29.8927 15.7344 29.8203 15.4126 29.7333L15.2775 29.6967C14.9657 29.6124 14.642 29.529 14.3127 29.4399L13.0648 34.4248C12.9368 34.9148 12.5848 35.1583 12.1637 35.0444ZM20.0551 23.6417C20.0497 23.6596 20.0426 23.6769 20.0341 23.6935L20.0304 23.7085C20.0189 23.7293 20.0096 23.7511 20.0025 23.7737L18.6421 29.2079C18.6204 29.3617 18.6422 29.5202 18.7053 29.6668C19.2328 30.945 19.7616 32.204 20.3515 33.5996C20.3941 33.6899 20.4436 33.7773 20.4997 33.861L20.5079 33.8742L22.0798 27.595C22.1009 27.5007 22.1131 27.4045 22.1162 27.3074L22.1198 27.2932L22.1233 27.2789C22.1261 27.2324 22.1286 27.1798 22.1356 27.1268C22.1404 26.4345 21.9502 25.7456 21.5852 25.1325C21.2202 24.5195 20.6939 24.0051 20.0618 23.6435L20.0551 23.6417ZM10.461 21.0032C10.2992 21.0051 10.1383 21.0181 9.97946 21.0419C9.17987 21.1195 8.43528 21.4322 7.84628 21.9376C7.25727 22.443 6.85222 23.1169 6.68583 23.8682C6.35791 25.1177 6.04675 26.3784 5.74692 27.5975L5.65541 27.9631C5.53102 28.46 5.40227 28.9743 5.2761 29.4783C5.26467 29.5385 5.25943 29.5999 5.26047 29.6616L5.2579 29.6719C5.25394 29.6877 5.25728 29.7064 5.25626 29.7247C5.2956 29.6961 5.33838 29.6719 5.38377 29.6527L5.38794 29.6539C5.40695 29.6455 5.42203 29.6386 5.43731 29.6309C5.97309 29.2047 6.51422 28.7749 7.05599 28.3462L7.12718 28.2894L7.26936 28.1766C7.7928 27.7618 8.31426 27.3478 8.83371 26.9347C8.96792 26.8145 9.05759 26.6553 9.09012 26.4794C9.3289 25.586 9.55287 24.6699 9.77015 23.7842L9.80184 23.6576C9.89949 23.2675 10.0169 22.7806 10.1308 22.3256L10.4618 21.0035L10.461 21.0032ZM15.7166 20.8266C15.8768 20.8793 16.0155 20.9827 16.1092 21.1194C16.203 21.2561 16.2461 21.4176 16.2313 21.5766C16.2144 21.7183 16.1868 21.8583 16.1487 21.9953L14.6208 28.0989L17.1905 28.7941L20.3349 16.2331C20.7677 14.4974 20.877 12.6888 20.6578 10.8891C20.4304 9.07807 20.0299 7.28364 19.4616 5.52869C19.3918 5.59428 19.3268 5.64766 19.2791 5.68883C19.1971 5.75304 19.1217 5.82455 19.0538 5.90245C18.8494 6.12849 18.6399 6.35736 18.4388 6.58091L18.428 6.59234C17.7032 7.38219 16.9578 8.1977 16.2909 9.04459C15 10.7014 14.0737 12.601 13.565 14.6349C12.932 17.2845 12.2487 19.9712 11.5887 22.5688C11.2599 23.8645 10.9192 25.2043 10.5882 26.5265L10.4749 26.9791L13.2122 27.7195L14.7553 21.555C14.7625 21.5265 14.77 21.4964 14.7777 21.4656C14.7913 21.3675 14.8233 21.2735 14.8722 21.1878C14.9362 21.0419 15.0528 20.9246 15.2016 20.8567C15.3503 20.7887 15.5217 20.7745 15.6854 20.8164L15.7166 20.8266Z" fill="#141416"/>
<path d="M6.85574 38.5964L8.17223 33.5078C8.20441 33.3681 8.24763 33.2311 8.30155 33.098C8.36934 32.9542 8.49172 32.8395 8.64668 32.7746C8.80164 32.7097 8.97904 32.6989 9.14698 32.744C9.31741 32.7823 9.4693 32.8763 9.57394 33.008C9.67857 33.1398 9.72871 33.3003 9.71486 33.4592C9.70432 33.5752 9.68249 33.6897 9.64963 33.8013L6.93985 44.2754C6.79449 44.7473 6.4357 44.9491 5.99946 44.8164C5.56322 44.6837 5.36508 44.3582 5.48798 43.8832C5.96097 42.1462 6.41689 40.384 6.85574 38.5964Z" fill="#141416"/>
<path d="M13.1123 40.9782L14.2779 36.4608C14.3056 36.3032 14.3682 36.1539 14.4617 36.022C14.5374 35.8942 14.6616 35.798 14.8116 35.7509C14.9616 35.7039 15.1272 35.7092 15.2781 35.7659C15.4352 35.8035 15.575 35.8911 15.6725 36.0128C15.77 36.1345 15.819 36.2824 15.8106 36.4302C15.8061 36.6024 15.7781 36.7725 15.7273 36.9365L13.3824 46.0245C13.2329 46.5137 12.8647 46.7568 12.4249 46.6439C11.9851 46.531 11.7852 46.1217 11.9079 45.6459L13.1123 40.9782Z" fill="#141416"/>
<path d="M9.30109 42.1363L9.94711 39.6048C10.0779 39.0921 10.4625 38.8536 10.8954 38.967C10.9993 39.0045 11.0951 39.0608 11.1769 39.1327C11.2588 39.2045 11.3251 39.2904 11.372 39.3853C11.4189 39.4802 11.4454 39.5822 11.45 39.6851C11.4545 39.7881 11.437 39.89 11.3984 39.9848L10.0912 45.1074C10.0781 45.2121 10.0422 45.3122 9.98552 45.4016C9.92885 45.4909 9.8527 45.5676 9.76177 45.6269C9.67085 45.6861 9.5671 45.7267 9.45694 45.7461C9.34679 45.7655 9.23259 45.7633 9.12142 45.7396C8.69272 45.6062 8.4872 45.2361 8.61843 44.7218C8.86196 43.8571 9.07899 43.0066 9.30109 42.1363Z" fill="#141416"/>
<path d="M16.7227 17.1242L16.6856 17.1141C16.041 16.9317 15.4844 16.5157 15.1343 15.9548C14.7842 15.3939 14.6684 14.7324 14.8115 14.1112C14.9765 13.4956 15.3864 12.9774 15.9539 12.6671C16.5213 12.3567 17.2015 12.2788 17.8494 12.4498L17.8857 12.4597C18.2151 12.5527 18.5252 12.707 18.7981 12.9139C19.071 13.1207 19.3014 13.376 19.4759 13.665C19.6466 13.9399 19.7609 14.2424 19.8124 14.5551C19.8638 14.8678 19.8514 15.1845 19.7757 15.487C19.6936 15.7906 19.5496 16.0729 19.3521 16.3176C19.1545 16.5623 18.9072 16.7647 18.6243 16.9131C18.0548 17.224 17.3717 17.2999 16.7227 17.1242ZM17.5436 13.7483C17.2563 13.6708 16.9541 13.7055 16.7031 13.8448C16.4522 13.9842 16.273 14.2167 16.205 14.4915C16.1493 14.7674 16.2063 15.0583 16.3641 15.3039C16.5219 15.5495 16.7686 15.7312 17.0531 15.8114C17.3445 15.8822 17.6478 15.8409 17.8982 15.6963C18.0211 15.6264 18.1269 15.5323 18.2092 15.4199C18.2915 15.3075 18.3486 15.179 18.3771 15.0423C18.4311 14.7715 18.3747 14.4864 18.2197 14.2457C18.0646 14.005 17.8226 13.8269 17.5436 13.7483Z" fill="#141416"/>
</svg>
